<mxfile host="65bd71144e">
    <diagram name="Class" id="hltYwqrPzxvUZZbvoy9N">
        <mxGraphModel dx="1040" dy="581" grid="1" gridSize="10" guides="1" tooltips="1" connect="1" arrows="1" fold="1" page="1" pageScale="1" pageWidth="827" pageHeight="1169" background="#ffffff" math="0" shadow="0">
            <root>
                <mxCell id="Je4-ReYXjOenGjM9LSW_-0"/>
                <mxCell id="Je4-ReYXjOenGjM9LSW_-1" parent="Je4-ReYXjOenGjM9LSW_-0"/>
                <mxCell id="Je4-ReYXjOenGjM9LSW_-3" value="User" style="swimlane;fontStyle=0;childLayout=stackLayout;horizontal=1;startSize=26;fillColor=none;horizontalStack=0;resizeParent=1;resizeParentMax=0;resizeLast=0;collapsible=1;marginBottom=0;" parent="Je4-ReYXjOenGjM9LSW_-1" vertex="1">
                    <mxGeometry x="40" y="40" width="160" height="390" as="geometry"/>
                </mxCell>
                <mxCell id="Je4-ReYXjOenGjM9LSW_-4" value="+ id: string" style="text;strokeColor=none;fillColor=none;align=left;verticalAlign=top;spacingLeft=4;spacingRight=4;overflow=hidden;rotatable=0;points=[[0,0.5],[1,0.5]];portConstraint=eastwest;" parent="Je4-ReYXjOenGjM9LSW_-3" vertex="1">
                    <mxGeometry y="26" width="160" height="26" as="geometry"/>
                </mxCell>
                <mxCell id="Je4-ReYXjOenGjM9LSW_-5" value="+ name: string" style="text;strokeColor=none;fillColor=none;align=left;verticalAlign=top;spacingLeft=4;spacingRight=4;overflow=hidden;rotatable=0;points=[[0,0.5],[1,0.5]];portConstraint=eastwest;" parent="Je4-ReYXjOenGjM9LSW_-3" vertex="1">
                    <mxGeometry y="52" width="160" height="26" as="geometry"/>
                </mxCell>
                <mxCell id="Je4-ReYXjOenGjM9LSW_-6" value="+ cin: string" style="text;strokeColor=none;fillColor=none;align=left;verticalAlign=top;spacingLeft=4;spacingRight=4;overflow=hidden;rotatable=0;points=[[0,0.5],[1,0.5]];portConstraint=eastwest;" parent="Je4-ReYXjOenGjM9LSW_-3" vertex="1">
                    <mxGeometry y="78" width="160" height="26" as="geometry"/>
                </mxCell>
                <mxCell id="Je4-ReYXjOenGjM9LSW_-7" value="+ age: number" style="text;strokeColor=none;fillColor=none;align=left;verticalAlign=top;spacingLeft=4;spacingRight=4;overflow=hidden;rotatable=0;points=[[0,0.5],[1,0.5]];portConstraint=eastwest;" parent="Je4-ReYXjOenGjM9LSW_-3" vertex="1">
                    <mxGeometry y="104" width="160" height="26" as="geometry"/>
                </mxCell>
                <mxCell id="Je4-ReYXjOenGjM9LSW_-8" value="+ phone: string" style="text;strokeColor=none;fillColor=none;align=left;verticalAlign=top;spacingLeft=4;spacingRight=4;overflow=hidden;rotatable=0;points=[[0,0.5],[1,0.5]];portConstraint=eastwest;" parent="Je4-ReYXjOenGjM9LSW_-3" vertex="1">
                    <mxGeometry y="130" width="160" height="26" as="geometry"/>
                </mxCell>
                <mxCell id="Je4-ReYXjOenGjM9LSW_-9" value="+ zipCode: number" style="text;strokeColor=none;fillColor=none;align=left;verticalAlign=top;spacingLeft=4;spacingRight=4;overflow=hidden;rotatable=0;points=[[0,0.5],[1,0.5]];portConstraint=eastwest;" parent="Je4-ReYXjOenGjM9LSW_-3" vertex="1">
                    <mxGeometry y="156" width="160" height="26" as="geometry"/>
                </mxCell>
                <mxCell id="Je4-ReYXjOenGjM9LSW_-10" value="+ city: string" style="text;strokeColor=none;fillColor=none;align=left;verticalAlign=top;spacingLeft=4;spacingRight=4;overflow=hidden;rotatable=0;points=[[0,0.5],[1,0.5]];portConstraint=eastwest;" parent="Je4-ReYXjOenGjM9LSW_-3" vertex="1">
                    <mxGeometry y="182" width="160" height="26" as="geometry"/>
                </mxCell>
                <mxCell id="Je4-ReYXjOenGjM9LSW_-11" value="+ address: string" style="text;strokeColor=none;fillColor=none;align=left;verticalAlign=top;spacingLeft=4;spacingRight=4;overflow=hidden;rotatable=0;points=[[0,0.5],[1,0.5]];portConstraint=eastwest;" parent="Je4-ReYXjOenGjM9LSW_-3" vertex="1">
                    <mxGeometry y="208" width="160" height="26" as="geometry"/>
                </mxCell>
                <mxCell id="Je4-ReYXjOenGjM9LSW_-55" value="+ vaccination: string" style="text;strokeColor=none;fillColor=none;align=left;verticalAlign=top;spacingLeft=4;spacingRight=4;overflow=hidden;rotatable=0;points=[[0,0.5],[1,0.5]];portConstraint=eastwest;" parent="Je4-ReYXjOenGjM9LSW_-3" vertex="1">
                    <mxGeometry y="234" width="160" height="26" as="geometry"/>
                </mxCell>
                <mxCell id="Je4-ReYXjOenGjM9LSW_-56" value="+ region: string" style="text;strokeColor=none;fillColor=none;align=left;verticalAlign=top;spacingLeft=4;spacingRight=4;overflow=hidden;rotatable=0;points=[[0,0.5],[1,0.5]];portConstraint=eastwest;" parent="Je4-ReYXjOenGjM9LSW_-3" vertex="1">
                    <mxGeometry y="260" width="160" height="26" as="geometry"/>
                </mxCell>
                <mxCell id="Je4-ReYXjOenGjM9LSW_-57" value="+ center: string" style="text;strokeColor=none;fillColor=none;align=left;verticalAlign=top;spacingLeft=4;spacingRight=4;overflow=hidden;rotatable=0;points=[[0,0.5],[1,0.5]];portConstraint=eastwest;" parent="Je4-ReYXjOenGjM9LSW_-3" vertex="1">
                    <mxGeometry y="286" width="160" height="26" as="geometry"/>
                </mxCell>
                <mxCell id="Je4-ReYXjOenGjM9LSW_-58" value="+ appointment: date" style="text;strokeColor=none;fillColor=none;align=left;verticalAlign=top;spacingLeft=4;spacingRight=4;overflow=hidden;rotatable=0;points=[[0,0.5],[1,0.5]];portConstraint=eastwest;" parent="Je4-ReYXjOenGjM9LSW_-3" vertex="1">
                    <mxGeometry y="312" width="160" height="26" as="geometry"/>
                </mxCell>
                <mxCell id="Je4-ReYXjOenGjM9LSW_-59" value="+ sideEffects: boolean" style="text;strokeColor=none;fillColor=none;align=left;verticalAlign=top;spacingLeft=4;spacingRight=4;overflow=hidden;rotatable=0;points=[[0,0.5],[1,0.5]];portConstraint=eastwest;" parent="Je4-ReYXjOenGjM9LSW_-3" vertex="1">
                    <mxGeometry y="338" width="160" height="26" as="geometry"/>
                </mxCell>
                <mxCell id="Je4-ReYXjOenGjM9LSW_-60" value="+ email: string" style="text;strokeColor=none;fillColor=none;align=left;verticalAlign=top;spacingLeft=4;spacingRight=4;overflow=hidden;rotatable=0;points=[[0,0.5],[1,0.5]];portConstraint=eastwest;" parent="Je4-ReYXjOenGjM9LSW_-3" vertex="1">
                    <mxGeometry y="364" width="160" height="26" as="geometry"/>
                </mxCell>
                <mxCell id="Je4-ReYXjOenGjM9LSW_-34" value="Center" style="swimlane;fontStyle=0;childLayout=stackLayout;horizontal=1;startSize=26;fillColor=none;horizontalStack=0;resizeParent=1;resizeParentMax=0;resizeLast=0;collapsible=1;marginBottom=0;" parent="Je4-ReYXjOenGjM9LSW_-1" vertex="1">
                    <mxGeometry x="440" y="536" width="160" height="104" as="geometry"/>
                </mxCell>
                <mxCell id="Je4-ReYXjOenGjM9LSW_-35" value="+ id: string" style="text;strokeColor=none;fillColor=none;align=left;verticalAlign=top;spacingLeft=4;spacingRight=4;overflow=hidden;rotatable=0;points=[[0,0.5],[1,0.5]];portConstraint=eastwest;" parent="Je4-ReYXjOenGjM9LSW_-34" vertex="1">
                    <mxGeometry y="26" width="160" height="26" as="geometry"/>
                </mxCell>
                <mxCell id="Je4-ReYXjOenGjM9LSW_-36" value="+ name: string" style="text;strokeColor=none;fillColor=none;align=left;verticalAlign=top;spacingLeft=4;spacingRight=4;overflow=hidden;rotatable=0;points=[[0,0.5],[1,0.5]];portConstraint=eastwest;" parent="Je4-ReYXjOenGjM9LSW_-34" vertex="1">
                    <mxGeometry y="52" width="160" height="26" as="geometry"/>
                </mxCell>
                <mxCell id="Je4-ReYXjOenGjM9LSW_-37" value="+ region: ObjectId" style="text;strokeColor=none;fillColor=none;align=left;verticalAlign=top;spacingLeft=4;spacingRight=4;overflow=hidden;rotatable=0;points=[[0,0.5],[1,0.5]];portConstraint=eastwest;" parent="Je4-ReYXjOenGjM9LSW_-34" vertex="1">
                    <mxGeometry y="78" width="160" height="26" as="geometry"/>
                </mxCell>
                <mxCell id="Je4-ReYXjOenGjM9LSW_-39" style="edgeStyle=none;html=1;entryX=0;entryY=0.5;entryDx=0;entryDy=0;endArrow=none;endFill=0;exitX=1.016;exitY=-0.24;exitDx=0;exitDy=0;exitPerimeter=0;" parent="Je4-ReYXjOenGjM9LSW_-1" source="Je4-ReYXjOenGjM9LSW_-51" target="Je4-ReYXjOenGjM9LSW_-36" edge="1">
                    <mxGeometry relative="1" as="geometry">
                        <mxPoint x="598.56" y="161.53600000000006" as="targetPoint"/>
                        <Array as="points"/>
                    </mxGeometry>
                </mxCell>
                <mxCell id="Je4-ReYXjOenGjM9LSW_-40" value="*..1" style="text;html=1;align=center;verticalAlign=middle;resizable=0;points=[];autosize=1;strokeColor=none;fillColor=none;" parent="Je4-ReYXjOenGjM9LSW_-1" vertex="1">
                    <mxGeometry x="399" y="565" width="30" height="20" as="geometry"/>
                </mxCell>
                <mxCell id="Je4-ReYXjOenGjM9LSW_-41" value="1..*" style="text;html=1;align=center;verticalAlign=middle;resizable=0;points=[];autosize=1;strokeColor=none;fillColor=none;" parent="Je4-ReYXjOenGjM9LSW_-1" vertex="1">
                    <mxGeometry x="210" y="565" width="30" height="20" as="geometry"/>
                </mxCell>
                <mxCell id="Je4-ReYXjOenGjM9LSW_-46" value="Manager" style="swimlane;fontStyle=0;childLayout=stackLayout;horizontal=1;startSize=26;fillColor=none;horizontalStack=0;resizeParent=1;resizeParentMax=0;resizeLast=0;collapsible=1;marginBottom=0;" parent="Je4-ReYXjOenGjM9LSW_-1" vertex="1">
                    <mxGeometry x="40" y="528" width="160" height="130" as="geometry"/>
                </mxCell>
                <mxCell id="Je4-ReYXjOenGjM9LSW_-47" value="+ id: string" style="text;strokeColor=none;fillColor=none;align=left;verticalAlign=top;spacingLeft=4;spacingRight=4;overflow=hidden;rotatable=0;points=[[0,0.5],[1,0.5]];portConstraint=eastwest;" parent="Je4-ReYXjOenGjM9LSW_-46" vertex="1">
                    <mxGeometry y="26" width="160" height="26" as="geometry"/>
                </mxCell>
                <mxCell id="Je4-ReYXjOenGjM9LSW_-50" value="+ email: email" style="text;strokeColor=none;fillColor=none;align=left;verticalAlign=top;spacingLeft=4;spacingRight=4;overflow=hidden;rotatable=0;points=[[0,0.5],[1,0.5]];portConstraint=eastwest;" parent="Je4-ReYXjOenGjM9LSW_-46" vertex="1">
                    <mxGeometry y="52" width="160" height="26" as="geometry"/>
                </mxCell>
                <mxCell id="Je4-ReYXjOenGjM9LSW_-51" value="+ password: string" style="text;strokeColor=none;fillColor=none;align=left;verticalAlign=top;spacingLeft=4;spacingRight=4;overflow=hidden;rotatable=0;points=[[0,0.5],[1,0.5]];portConstraint=eastwest;" parent="Je4-ReYXjOenGjM9LSW_-46" vertex="1">
                    <mxGeometry y="78" width="160" height="26" as="geometry"/>
                </mxCell>
                <mxCell id="Je4-ReYXjOenGjM9LSW_-52" value="+ region: string" style="text;strokeColor=none;fillColor=none;align=left;verticalAlign=top;spacingLeft=4;spacingRight=4;overflow=hidden;rotatable=0;points=[[0,0.5],[1,0.5]];portConstraint=eastwest;" parent="Je4-ReYXjOenGjM9LSW_-46" vertex="1">
                    <mxGeometry y="104" width="160" height="26" as="geometry"/>
                </mxCell>
                <mxCell id="mbBpHzZWobPo72GrB3_Z-0" style="edgeStyle=none;html=1;entryX=0.5;entryY=0.981;entryDx=0;entryDy=0;entryPerimeter=0;endArrow=none;endFill=0;" parent="Je4-ReYXjOenGjM9LSW_-1" source="Je4-ReYXjOenGjM9LSW_-61" target="Je4-ReYXjOenGjM9LSW_-52" edge="1">
                    <mxGeometry relative="1" as="geometry"/>
                </mxCell>
                <mxCell id="Je4-ReYXjOenGjM9LSW_-61" value="Admin" style="swimlane;fontStyle=0;childLayout=stackLayout;horizontal=1;startSize=26;fillColor=none;horizontalStack=0;resizeParent=1;resizeParentMax=0;resizeLast=0;collapsible=1;marginBottom=0;" parent="Je4-ReYXjOenGjM9LSW_-1" vertex="1">
                    <mxGeometry x="40" y="740" width="160" height="104" as="geometry"/>
                </mxCell>
                <mxCell id="Je4-ReYXjOenGjM9LSW_-62" value="+ id: string" style="text;strokeColor=none;fillColor=none;align=left;verticalAlign=top;spacingLeft=4;spacingRight=4;overflow=hidden;rotatable=0;points=[[0,0.5],[1,0.5]];portConstraint=eastwest;" parent="Je4-ReYXjOenGjM9LSW_-61" vertex="1">
                    <mxGeometry y="26" width="160" height="26" as="geometry"/>
                </mxCell>
                <mxCell id="Je4-ReYXjOenGjM9LSW_-63" value="+ email: email" style="text;strokeColor=none;fillColor=none;align=left;verticalAlign=top;spacingLeft=4;spacingRight=4;overflow=hidden;rotatable=0;points=[[0,0.5],[1,0.5]];portConstraint=eastwest;" parent="Je4-ReYXjOenGjM9LSW_-61" vertex="1">
                    <mxGeometry y="52" width="160" height="26" as="geometry"/>
                </mxCell>
                <mxCell id="Je4-ReYXjOenGjM9LSW_-64" value="+ password: string" style="text;strokeColor=none;fillColor=none;align=left;verticalAlign=top;spacingLeft=4;spacingRight=4;overflow=hidden;rotatable=0;points=[[0,0.5],[1,0.5]];portConstraint=eastwest;" parent="Je4-ReYXjOenGjM9LSW_-61" vertex="1">
                    <mxGeometry y="78" width="160" height="26" as="geometry"/>
                </mxCell>
            </root>
        </mxGraphModel>
    </diagram>
    <diagram id="N9rBPqY2RjM6zucBbA17" name="Use Case">
        <mxGraphModel dx="1040" dy="587" grid="1" gridSize="10" guides="1" tooltips="1" connect="1" arrows="1" fold="1" page="1" pageScale="1" pageWidth="827" pageHeight="1169" background="#ffffff" math="0" shadow="0">
            <root>
                <mxCell id="Mt3Vj4nCImg9GtHoOcer-0"/>
                <mxCell id="Mt3Vj4nCImg9GtHoOcer-1" parent="Mt3Vj4nCImg9GtHoOcer-0"/>
                <mxCell id="mWFIH7FpVcuFvGHkrPF5-0" value="Vaccination Campaign" style="shape=umlFrame;whiteSpace=wrap;html=1;width=240;height=30;" parent="Mt3Vj4nCImg9GtHoOcer-1" vertex="1">
                    <mxGeometry x="80" y="40" width="680" height="840" as="geometry"/>
                </mxCell>
                <mxCell id="mWFIH7FpVcuFvGHkrPF5-1" value="User" style="shape=umlActor;verticalLabelPosition=bottom;verticalAlign=top;html=1;" parent="Mt3Vj4nCImg9GtHoOcer-1" vertex="1">
                    <mxGeometry x="10" y="405" width="30" height="60" as="geometry"/>
                </mxCell>
                <mxCell id="mWFIH7FpVcuFvGHkrPF5-7" style="edgeStyle=none;html=1;entryX=0.5;entryY=0.5;entryDx=0;entryDy=0;entryPerimeter=0;startArrow=none;startFill=0;endArrow=none;endFill=0;startSize=24;exitX=0;exitY=0.5;exitDx=0;exitDy=0;" parent="Mt3Vj4nCImg9GtHoOcer-1" source="mWFIH7FpVcuFvGHkrPF5-10" target="mWFIH7FpVcuFvGHkrPF5-1" edge="1">
                    <mxGeometry relative="1" as="geometry"/>
                </mxCell>
                <mxCell id="mWFIH7FpVcuFvGHkrPF5-2" value="Authentication" style="ellipse;whiteSpace=wrap;html=1;" parent="Mt3Vj4nCImg9GtHoOcer-1" vertex="1">
                    <mxGeometry x="370" y="280" width="140" height="70" as="geometry"/>
                </mxCell>
                <mxCell id="mWFIH7FpVcuFvGHkrPF5-3" value="Verification" style="ellipse;whiteSpace=wrap;html=1;" parent="Mt3Vj4nCImg9GtHoOcer-1" vertex="1">
                    <mxGeometry x="160" y="120" width="140" height="70" as="geometry"/>
                </mxCell>
                <mxCell id="mWFIH7FpVcuFvGHkrPF5-4" value="Error" style="ellipse;whiteSpace=wrap;html=1;" parent="Mt3Vj4nCImg9GtHoOcer-1" vertex="1">
                    <mxGeometry x="540" y="120" width="140" height="70" as="geometry"/>
                </mxCell>
                <mxCell id="mWFIH7FpVcuFvGHkrPF5-8" value="&amp;lt;&amp;lt;extend&amp;gt;&amp;gt;" style="html=1;verticalAlign=bottom;labelBackgroundColor=none;endArrow=open;endFill=0;dashed=1;startSize=24;exitX=0.5;exitY=1;exitDx=0;exitDy=0;entryX=0.5;entryY=0;entryDx=0;entryDy=0;" parent="Mt3Vj4nCImg9GtHoOcer-1" source="mWFIH7FpVcuFvGHkrPF5-4" target="mWFIH7FpVcuFvGHkrPF5-2" edge="1">
                    <mxGeometry width="160" relative="1" as="geometry">
                        <mxPoint x="220" y="200" as="sourcePoint"/>
                        <mxPoint x="380" y="200" as="targetPoint"/>
                    </mxGeometry>
                </mxCell>
                <mxCell id="mWFIH7FpVcuFvGHkrPF5-9" value="&amp;lt;&amp;lt;include&amp;gt;&amp;gt;" style="html=1;verticalAlign=bottom;labelBackgroundColor=none;endArrow=none;endFill=0;dashed=1;startSize=6;exitX=0.5;exitY=1;exitDx=0;exitDy=0;entryX=0.5;entryY=0;entryDx=0;entryDy=0;startArrow=open;startFill=0;" parent="Mt3Vj4nCImg9GtHoOcer-1" source="mWFIH7FpVcuFvGHkrPF5-3" target="mWFIH7FpVcuFvGHkrPF5-2" edge="1">
                    <mxGeometry width="160" relative="1" as="geometry">
                        <mxPoint x="220" y="200" as="sourcePoint"/>
                        <mxPoint x="380" y="200" as="targetPoint"/>
                    </mxGeometry>
                </mxCell>
                <mxCell id="mWFIH7FpVcuFvGHkrPF5-10" value="Create project" style="ellipse;whiteSpace=wrap;html=1;" parent="Mt3Vj4nCImg9GtHoOcer-1" vertex="1">
                    <mxGeometry x="160" y="400" width="140" height="70" as="geometry"/>
                </mxCell>
                <mxCell id="mWFIH7FpVcuFvGHkrPF5-11" value="&amp;lt;&amp;lt;include&amp;gt;&amp;gt;" style="html=1;verticalAlign=bottom;labelBackgroundColor=none;endArrow=none;endFill=0;dashed=1;startSize=6;exitX=0.5;exitY=1;exitDx=0;exitDy=0;entryX=0.5;entryY=0;entryDx=0;entryDy=0;startArrow=open;startFill=0;" parent="Mt3Vj4nCImg9GtHoOcer-1" source="mWFIH7FpVcuFvGHkrPF5-2" target="mWFIH7FpVcuFvGHkrPF5-10" edge="1">
                    <mxGeometry width="160" relative="1" as="geometry">
                        <mxPoint x="264" y="310" as="sourcePoint"/>
                        <mxPoint x="414" y="395" as="targetPoint"/>
                    </mxGeometry>
                </mxCell>
                <mxCell id="mWFIH7FpVcuFvGHkrPF5-14" value="Create task/issue" style="ellipse;whiteSpace=wrap;html=1;" parent="Mt3Vj4nCImg9GtHoOcer-1" vertex="1">
                    <mxGeometry x="160" y="560" width="140" height="70" as="geometry"/>
                </mxCell>
                <mxCell id="mWFIH7FpVcuFvGHkrPF5-15" value="View projects" style="ellipse;whiteSpace=wrap;html=1;" parent="Mt3Vj4nCImg9GtHoOcer-1" vertex="1">
                    <mxGeometry x="540" y="400" width="140" height="70" as="geometry"/>
                </mxCell>
                <mxCell id="mWFIH7FpVcuFvGHkrPF5-16" value="View tasks/issues&lt;br&gt;(with comments)" style="ellipse;whiteSpace=wrap;html=1;" parent="Mt3Vj4nCImg9GtHoOcer-1" vertex="1">
                    <mxGeometry x="540" y="560" width="140" height="70" as="geometry"/>
                </mxCell>
                <mxCell id="mWFIH7FpVcuFvGHkrPF5-17" value="Manage comments" style="ellipse;whiteSpace=wrap;html=1;" parent="Mt3Vj4nCImg9GtHoOcer-1" vertex="1">
                    <mxGeometry x="540" y="720" width="140" height="70" as="geometry"/>
                </mxCell>
                <mxCell id="mWFIH7FpVcuFvGHkrPF5-20" value="&amp;lt;&amp;lt;include&amp;gt;&amp;gt;" style="html=1;verticalAlign=bottom;labelBackgroundColor=none;endArrow=none;endFill=0;dashed=1;startSize=6;exitX=0.5;exitY=1;exitDx=0;exitDy=0;entryX=0.5;entryY=0;entryDx=0;entryDy=0;startArrow=open;startFill=0;" parent="Mt3Vj4nCImg9GtHoOcer-1" source="mWFIH7FpVcuFvGHkrPF5-10" target="mWFIH7FpVcuFvGHkrPF5-14" edge="1">
                    <mxGeometry width="160" relative="1" as="geometry">
                        <mxPoint x="480" y="450" as="sourcePoint"/>
                        <mxPoint x="300" y="540" as="targetPoint"/>
                    </mxGeometry>
                </mxCell>
                <mxCell id="mWFIH7FpVcuFvGHkrPF5-21" value="&amp;lt;&amp;lt;include&amp;gt;&amp;gt;" style="html=1;verticalAlign=bottom;labelBackgroundColor=none;endArrow=none;endFill=0;dashed=1;startSize=6;exitX=0.5;exitY=1;exitDx=0;exitDy=0;entryX=0.5;entryY=0;entryDx=0;entryDy=0;startArrow=open;startFill=0;" parent="Mt3Vj4nCImg9GtHoOcer-1" source="mWFIH7FpVcuFvGHkrPF5-15" target="mWFIH7FpVcuFvGHkrPF5-16" edge="1">
                    <mxGeometry width="160" relative="1" as="geometry">
                        <mxPoint x="520" y="460" as="sourcePoint"/>
                        <mxPoint x="520" y="550" as="targetPoint"/>
                    </mxGeometry>
                </mxCell>
                <mxCell id="mWFIH7FpVcuFvGHkrPF5-22" value="&amp;lt;&amp;lt;include&amp;gt;&amp;gt;" style="html=1;verticalAlign=bottom;labelBackgroundColor=none;endArrow=none;endFill=0;dashed=1;startSize=6;exitX=0.5;exitY=1;exitDx=0;exitDy=0;entryX=0.5;entryY=0;entryDx=0;entryDy=0;startArrow=open;startFill=0;" parent="Mt3Vj4nCImg9GtHoOcer-1" source="mWFIH7FpVcuFvGHkrPF5-16" target="mWFIH7FpVcuFvGHkrPF5-17" edge="1">
                    <mxGeometry width="160" relative="1" as="geometry">
                        <mxPoint x="649.5" y="630" as="sourcePoint"/>
                        <mxPoint x="649.5" y="720" as="targetPoint"/>
                    </mxGeometry>
                </mxCell>
                <mxCell id="mWFIH7FpVcuFvGHkrPF5-25" value="&amp;lt;&amp;lt;include&amp;gt;&amp;gt;" style="html=1;verticalAlign=bottom;labelBackgroundColor=none;endArrow=none;endFill=0;dashed=1;startSize=6;exitX=0.5;exitY=1;exitDx=0;exitDy=0;entryX=0.5;entryY=0;entryDx=0;entryDy=0;startArrow=open;startFill=0;" parent="Mt3Vj4nCImg9GtHoOcer-1" source="mWFIH7FpVcuFvGHkrPF5-2" target="mWFIH7FpVcuFvGHkrPF5-15" edge="1">
                    <mxGeometry width="160" relative="1" as="geometry">
                        <mxPoint x="520" y="320" as="sourcePoint"/>
                        <mxPoint x="340" y="410" as="targetPoint"/>
                    </mxGeometry>
                </mxCell>
            </root>
        </mxGraphModel>
    </diagram>
</mxfile>